# xmcd
#
# Track frame offsets:
#	150
#	14756
#	25501
#	39291
#	50241
#	64880
#	71751
#	84116
#	94986
#	106089
#	120489
#	135526
#
# Disc length: 1928 seconds
#
# Revision: 0
# Processed by: cddbd v1.5.2PL0 Copyright (c) Steve Scherf et al.
# Submitted via: audiograbber 1.83.01
#
DISCID=9a07860c
DTITLE=The Yardbirds - Roger The Engineer (Mono LP 1966)
DYEAR=1966
DGENRE=
TTITLE0=Lost Woman
TTITLE1=Over Under Sideways Down
TTITLE2=The Nazz Are Blue
TTITLE3=I Can't Make Your Way
TTITLE4=Rack My Mind
TTITLE5=Farewell
TTITLE6=Hot House Of Omagarashid
TTITLE7=Jeff's Boogie
TTITLE8=He's Always There
TTITLE9=Turn Into Earth
TTITLE10=What Do You Want
TTITLE11=Ever Since The World
EXTD=
EXTT0=
EXTT1=
EXTT2=
EXTT3=
EXTT4=
EXTT5=
EXTT6=
EXTT7=
EXTT8=
EXTT9=
EXTT10=
EXTT11=
PLAYORDER=
